#!OML:ASF E:\acrobat2\Project_11_07_03\Capture day 1\Session 1\Acrobat.ASF
:FULLY-SPECIFIED
:DEGREES
612
root 3.93558 8.81872 2.01385 -23.2463 13.0595 -11.433
lowerback 26.079 -2.29993 0.0391686
upperback 9.82595 -2.82689 0.374061
thorax -3.53185 -1.36762 1.17714
lowerneck -11.767 -1.82385 1.0083
upperneck -3.58886 -2.57337 5.788
head 0.925318 -1.18025 1.54165
rclavicle 3.97569e-016 -4.77083e-015
rhumerus -51.0107 -61.3133 30.5011
rradius 21.3953
rwrist -9.14253
rhand -17.5133 -42.8919
rfingers 7.12502
rthumb 8.74005 -72.6909
lclavicle 3.97569e-016 -4.77083e-015
lhumerus 14.4719 50.263 9.45501
lradius 18.0992
lwrist 9.13769
lhand -31.6149 -3.86686
lfingers 7.12502
lthumb -4.87693 26.057
rfemur -71.7618 -8.33629 2.80487
rtibia 11.0216
rfoot -21.1428 -21.9575
rtoes 8.94266
lfemur -46.447 2.87421 -15.2691
ltibia 36.2421
lfoot -192.812 11.1724
ltoes 29.5335
613
root 3.89581 8.66396 1.94082 -22.6498 14.3566 -11.9861
lowerback 26.3127 -2.53821 -0.0678568
upperback 9.87414 -3.13399 0.561341
thorax -3.56672 -1.52043 1.53576
lowerneck -11.5152 -2.02779 0.972234
upperneck -4.58708 -2.77807 6.14447
head 0.575074 -1.30448 1.65626
rclavicle -4.37326e-014 -2.70347e-014
rhumerus -54.1318 -59.6257 32.4743
rradius 21.4495
rwrist -10.782
rhand -18.4178 -43.0151
rfingers 7.12502
rthumb 7.86708 -72.8487
lclavicle -4.37326e-014 -2.70347e-014
lhumerus 14.1476 49.7017 9.88546
lradius 18.0609
lwrist 12.7117
lhand -33.7964 -3.78594
lfingers 7.12502
lthumb -6.98302 26.0789
rfemur -71.7796 -9.22377 0.441848
rtibia 8.87791
rfoot -22.3516 -23.6029
rtoes 5.34126
lfemur -47.4827 0.973074 -15.8073
ltibia 35.6467
lfoot -192.877 12.5847
ltoes 37.9403
614
root 3.86397 8.49559 1.87156 -22.2099 15.5119 -12.5626
lowerback 26.5742 -2.73604 -0.0482342
upperback 9.96659 -3.3561 0.760244
thorax -3.57064 -1.62927 1.8124
lowerneck -11.3474 -2.29061 0.872768
upperneck -5.44556 -3.05842 6.6046
head 0.292988 -1.46158 1.81506
rclavicle 2.26615e-014 4.77083e-015
rhumerus -57.5531 -58.5123 34.9934
rradius 21.2841
rwrist -11.8101
rhand -19.0225 -43.0823
rfingers 7.12502
rthumb 7.28346 -72.937
lclavicle 2.26615e-014 4.77083e-015
lhumerus 14.4269 50.1687 10.8993
lradius 17.9467
lwrist 13.1732
lhand -34.4741 -3.25804
lfingers 7.12502
lthumb -7.63722 26.5841
rfemur -71.8134 -10.1481 -1.91682
rtibia 7.8955
rfoot -24.3436 -25.1124
rtoes 7.00406
lfemur -49.5012 -0.568259 -16.5671
ltibia 33.6768
lfoot -194.517 12.0892
ltoes 37.1899
615
root 3.8327 8.3113 1.80584 -22.0655 16.3324 -13.4518
lowerback 26.9603 -2.94181 0.344295
upperback 10.1094 -3.49201 0.978748
thorax -3.59866 -1.68845 1.87973
lowerneck -11.3583 -2.47481 0.971983
upperneck -6.05581 -3.27188 7.0378
head 0.114615 -1.58133 1.93366
rclavicle -4.53229e-014 0
rhumerus -62.0688 -58.4006 38.9455
rradius 20.8845
rwrist -11.6935
rhand -18.8081 -43.1964
rfingers 7.12502
rthumb 7.49041 -73.0438
lclavicle -4.53229e-014 0
lhumerus 14.3802 48.42 11.103
lradius 18.0845
lwrist 18.1821
lhand -36.2457 -3.28917
lfingers 7.12502
lthumb -9.34688 26.4836
rfemur -71.9285 -10.8437 -3.86611
rtibia 7.67396
rfoot -27.131 -24.9988
rtoes 13.3286
lfemur -52.2131 -1.01347 -16.8808
ltibia 31.7962
lfoot -195.799 10.0764
ltoes 34.6928
616
root 3.79991 8.11643 1.74053 -22.3548 16.9061 -14.6584
lowerback 27.5687 -3.19364 1.03544
upperback 10.3812 -3.59853 1.23376
thorax -3.60167 -1.72719 1.81731
lowerneck -11.2139 -2.57328 1.02546
upperneck -6.83605 -3.34237 7.60042
head -0.143578 -1.63801 2.1132
rclavicle 2.78299e-015 -3.18055e-015
rhumerus -67.091 -58.8448 43.5844
rradius 20.4225
rwrist -10.9972
rhand -18.5357 -43.5705
rfingers 7.12502
rthumb 7.75334 -73.4083
lclavicle 2.78299e-015 -3.18055e-015
lhumerus 15.3612 48.6336 12.2482
lradius 18.0402
lwrist 19.7316
lhand -36.7255 -2.84606
lfingers 7.12502
lthumb -9.80979 26.9054
rfemur -72.0181 -11.3341 -5.46278
rtibia 8.3866
rfoot -30.5049 -27.5939
rtoes 15.9486
lfemur -55.1606 -1.10482 -16.8654
ltibia 29.8297
lfoot -196.65 7.73751
ltoes 32.6045
617
root 3.77512 7.92105 1.67194 -23.1625 17.3118 -15.7923
lowerback 28.6384 -3.4284 1.66422
upperback 10.7884 -3.67314 1.46782
thorax -3.66062 -1.74837 1.78001
lowerneck -10.8889 -2.68424 0.947258
upperneck -7.75761 -3.39106 8.21101
head -0.474014 -1.69253 2.34043
rclavicle 2.74323e-014 -6.04305e-014
rhumerus -72.9405 -59.8921 49.4701
rradius 19.8471
rwrist -9.60992
rhand -18.4258 -44.1147
rfingers 7.12502
rthumb 7.85937 -73.9486
lclavicle 2.74323e-014 -6.04305e-014
lhumerus 16.7656 49.342 13.7901
lradius 18.0581
lwrist 20.3011
lhand -36.7404 -2.44912
lfingers 7.12502
lthumb -9.82417 27.3017
rfemur -71.8188 -11.6042 -7.17292
rtibia 9.87716
rfoot -32.7461 -29.2873
rtoes 18.7885
lfemur -57.4425 -1.59435 -17.0059
ltibia 27.5615
lfoot -197.413 5.88588
ltoes 30.689
618
root 3.75769 7.73068 1.60478 -24.3168 17.4845 -16.4224
lowerback 30.0912 -3.48189 1.79482
upperback 11.3294 -3.62974 1.60479
thorax -3.71087 -1.7195 1.9001
lowerneck -10.4032 -2.79171 0.656224
upperneck -8.79012 -3.38799 8.95114
head -0.864449 -1.72662 2.66154
rclavicle -2.70347e-014 9.54166e-015
rhumerus -78.4763 -61.0118 55.1294
rradius 19.3718
rwrist -8.85366
rhand -18.0034 -44.8594
rfingers 7.12502
rthumb 8.26706 -74.6776
lclavicle -2.70347e-014 9.54166e-015
lhumerus 18.3704 50.0189 15.6057
lradius 18.5032
lwrist 20.9983
lhand -37.2157 -1.71843
lfingers 7.12502
lthumb -10.2828 28.0102
rfemur -71.4568 -11.4125 -9.29692
rtibia 11.9558
rfoot -33.6371 -29.6416
rtoes 21.6132
lfemur -59.0132 -1.78356 -17.4953
ltibia 25.5691
lfoot -197.405 4.30159
ltoes 30.2458
619
root 3.75102 7.54785 1.5448 -25.5134 17.4936 -16.3892
lowerback 31.5264 -3.32024 1.29957
upperback 11.9805 -3.50361 1.58749
thorax -3.58645 -1.66498 2.17332
lowerneck -9.61012 -2.82462 0.331649
upperneck -10.0674 -3.24666 9.64559
head -1.39999 -1.71028 2.99759
rclavicle 3.97569e-016 -2.22639e-014
rhumerus -82.0771 -62.004 58.489
rradius 19.2571
rwrist -9.95873
rhand -18.0285 -45.5475
rfingers 7.12502
rthumb 8.2428 -75.3667
lclavicle 3.97569e-016 -2.22639e-014
lhumerus 19.9696 50.6134 17.3495
lradius 18.8939
lwrist 21.4501
lhand -37.5919 -1.92636
lfingers 7.12502
lthumb -10.6456 27.784
rfemur -72.2002 -10.9796 -11.8381
rtibia 15.5189
rfoot -32.4487 -30.3312
rtoes 19.9895
lfemur -60.0314 -2.00731 -18.4962
ltibia 24.0228
lfoot -196.773 3.17645
ltoes 31.5925
620
root 3.75026 7.37496 1.48903 -26.8106 17.3392 -16.1629
lowerback 32.9856 -3.044 0.575207
upperback 12.5987 -3.3173 1.55821
thorax -3.47981 -1.59179 2.54387
lowerneck -8.69454 -2.84473 0.205825
upperneck -11.2228 -3.12575 9.95531
head -1.93681 -1.71052 3.17555
rclavicle 4.37326e-015 3.02153e-014
rhumerus -83.1879 -63.0411 59.1551
rradius 19.469
rwrist -13.0575
rhand -19.1743 -46.1556
rfingers 7.12502
rthumb 7.13695 -76.0152
lclavicle 4.37326e-015 3.02153e-014
lhumerus 20.4641 48.793 17.7762
lradius 19.9943
lwrist 26.999
lhand -40.2426 -3.43671
lfingers 7.12502
lthumb -13.2017 26.1253
rfemur -74.0955 -12.4645 -7.14372
rtibia 20.4533
rfoot -25.6107 -23.6271
rtoes 19.9
lfemur -60.7714 -2.28775 -19.5579
ltibia 22.6994
lfoot -196.018 2.35245
ltoes 32.1692
621
root 3.73887 7.21269 1.43471 -28.2013 17.0774 -16.1981
lowerback 35.0138 -2.74485 -0.0398343
upperback 12.6309 -3.08622 1.76937
thorax -3.68037 -1.50696 2.89058
lowerneck -7.55181 -2.89031 0.0857433
upperneck -12.2818 -3.04435 10.1928
head -2.49153 -1.73372 3.3376
rclavicle -1.63003e-014 -3.18055e-014
rhumerus -81.5576 -64.0023 56.8909
rradius 20.0451
rwrist -17.8045
rhand -20.7542 -46.8774
rfingers 7.12502
rthumb 5.61162 -76.7831
lclavicle -1.63003e-014 -3.18055e-014
lhumerus 20.9959 47.3544 18.4883
lradius 21.1918
lwrist 29.6679
lhand -41.4543 -5.15391
lfingers 7.12502
lthumb -14.3694 24.3288
rfemur -75.3782 -13.1116 -3.77447
rtibia 24.8006
rfoot -21.2194 -22.0835
rtoes 7.73086
lfemur -61.6218 -2.6662 -19.9484
ltibia 21.4265
lfoot -195.35 1.80947
ltoes 30.8658
622
root 3.72604 7.06597 1.38306 -29.2952 16.9496 -16.0267
lowerback 36.2646 -2.3574 -0.933841
upperback 12.9445 -2.86929 1.86334
thorax -3.73833 -1.4335 3.41362
lowerneck -6.55418 -2.96423 -0.169508
upperneck -13.031 -3.00926 10.626
head -2.92044 -1.76572 3.58786
rclavicle -3.97569e-015 -6.04305e-014
rhumerus -80.1412 -65.295 54.8965
rradius 20.7773
rwrist -22.2816
rhand -22.3966 -47.3153
rfingers 7.12502
rthumb 4.02579 -77.257
lclavicle -3.97569e-015 -6.04305e-014
lhumerus 20.3964 43.8569 17.7191
lradius 22.5688
lwrist 33.784
lhand -42.9986 -7.98106
lfingers 7.12502
lthumb -15.857 21.3896
rfemur -76.4229 -13.5067 -1.69336
rtibia 28.8164
rfoot -19.0525 -19.1111
rtoes -0.530916
lfemur -62.5838 -3.25298 -20.2423
ltibia 20.3758
lfoot -194.386 1.7626
ltoes 30.0347
